<svg width="150" height="41" viewBox="0 0 150 41" fill="none" xmlns="http://www.w3.org/2000/svg">
<path d="M11.6782 26.1588H10.0687L7.62824 15.4894H5.05059L2.61013 26.1588H1L5.53435 6.3373H7.14388L11.6782 26.1588ZM7.50971 14.3834L6.33881 9.26447L5.16792 14.3834H7.50971Z" fill="#F5ED4F"/>
<path d="M20.4629 6.3373V21.9602C20.4629 24.2755 18.7295 26.1588 16.5983 26.1588C14.4671 26.1588 12.7336 24.2755 12.7336 21.9602V6.3373H14.2956V21.9602C14.2956 23.3395 15.3287 24.4618 16.5983 24.4618C17.8678 24.4618 18.9009 23.3395 18.9009 21.9602V6.3373H20.4629Z" fill="#F5ED4F"/>
<path d="M39.832 20.3253C39.8711 20.36 39.9078 20.394 39.9433 20.428C40.6647 21.1215 41.0781 22.0779 41.0781 23.042C41.0781 24.0062 40.6792 24.8815 39.956 25.5064C39.2056 26.1542 38.1334 26.4967 36.8554 26.4967C34.4763 26.4967 32.522 25.8038 31.0467 24.4383C29.8391 23.3198 28.9293 21.7471 28.2645 19.6298C27.1279 16.0104 26.3728 14.4239 23.9142 14.4239V26.1594H22.3522V6.3373H25.1164C27.0797 6.3373 28.6772 8.15125 28.6772 10.3803C28.6772 11.8079 28.022 13.0656 27.0352 13.7846C27.3306 14.035 27.6032 14.3305 27.8523 14.6717C28.6742 15.7973 29.1953 17.3348 29.7434 19.0814C30.9853 23.0355 33.1791 24.7991 36.856 24.7991C37.7778 24.7991 38.5137 24.5841 38.9848 24.1775C39.3332 23.8768 39.5173 23.4839 39.5173 23.0414C39.5173 22.0373 38.5666 20.9986 36.9758 20.9986C33.1695 20.9986 30.0732 17.6342 30.0732 13.499C30.0732 9.36382 33.1683 6 36.9746 6C40.7809 6 43.8772 9.36448 43.8772 13.4996C43.8772 16.5281 42.2159 19.1422 39.832 20.3253ZM25.1152 12.7263C26.2175 12.7263 27.114 11.6739 27.114 10.3803C27.114 9.08667 26.2175 8.03425 25.1152 8.03425H23.913V12.7263H25.1152ZM42.3158 13.4996C42.3158 10.2999 39.9199 7.69695 36.9746 7.69695C34.0293 7.69695 31.6333 10.2999 31.6333 13.4996C31.6333 16.6994 34.0293 19.3023 36.9746 19.3023C39.9199 19.3023 42.3158 16.6994 42.3158 13.4996Z" fill="#F5ED4F"/>
<path d="M60.3184 22.4851L61.532 23.5532C60.7883 24.5514 59.9093 25.2737 58.9201 25.7005C58.2155 26.0045 57.4502 26.1588 56.6451 26.1588C54.5999 26.1588 53.0458 25.3436 51.8929 23.6663C50.9392 22.2785 50.4278 20.5515 49.9338 18.882C49.1155 16.1176 48.5319 14.4239 46.9115 14.4233V26.1588H45.3495V6.3373H48.1137C50.077 6.3373 51.6745 8.15126 51.6745 10.3803C51.6745 12.0086 50.8219 13.4153 49.5969 14.0553C49.7413 14.2344 49.8791 14.4311 50.0078 14.6455C50.6252 15.6731 51.0114 16.9792 51.4212 18.3617C52.3502 21.4987 53.2269 24.4612 56.6457 24.4612C58.1048 24.4612 59.3407 23.797 60.3184 22.4851ZM50.1125 10.3803C50.1125 9.08667 49.216 8.03425 48.1137 8.03425H46.9115V12.7263H48.1137C49.216 12.7263 50.1125 11.6739 50.1125 10.3803ZM54.3773 21.0686H52.7678L56.1373 6.3373H57.7468L61.1163 21.0679H59.5067L58.2305 15.4894H55.6529L54.3773 21.0686ZM55.7714 14.3834H58.1132L56.9423 9.26512L55.7714 14.3834Z" fill="#F5ED4F"/>
<path d="M78.1941 21.6732C78.1941 25.4371 75.4877 26.4967 74.0376 26.4967C72.6681 26.4967 71.7163 26.2339 71.1404 25.9339V23.9493C71.4738 24.2193 72.5737 24.7998 73.9124 24.7998C75.2512 24.7998 76.6327 23.6604 76.6327 21.6732C76.6327 18.2878 71.2608 14.7789 71.2608 10.0064C71.2608 7.57406 72.9521 6.00065 75.0725 6.00065C75.7464 6.00065 76.4462 6.16081 77.4769 6.47653V8.24015C76.4137 7.85971 75.6495 7.6976 75.0725 7.6976C74.5448 7.6976 72.8228 7.86429 72.8228 10.0064C72.8228 14.2494 78.1941 17.3661 78.1941 21.6732Z" fill="#F1F1F1"/>
<path d="M86.6497 6.3373V8.03425H83.8V26.1588H82.2381V8.03425H79.3885V6.3373H86.6497Z" fill="#F1F1F1"/>
<path d="M89.9614 8.03425V12.7263H94.107V14.4233H89.9614V24.4618H95.3483V26.1588H88.4V6.3373H95.3483V8.03425H89.9614Z" fill="#F1F1F1"/>
<path d="M107.498 26.1588H105.889L103.448 15.4894H100.871L98.4302 26.1588H96.8207L101.354 6.3373H102.964L107.498 26.1588ZM103.33 14.3834L102.159 9.26447L100.988 14.3834H103.33Z" fill="#F1F1F1"/>
<path d="M117.874 6.3373V26.1588H116.312V10.0966L114.297 14.4239H112.547L110.532 10.0966V26.1594H108.97V6.3373H110.532L113.423 12.544L116.313 6.3373H117.874Z" fill="#F1F1F1"/>
<path d="M136.916 7.69695C132.32 7.69695 129.044 11.5327 129.044 16.2484C129.044 20.964 132.576 24.7998 136.916 24.7998C137.371 24.7998 137.895 24.7749 138.427 24.7154V13.7931H139.989V26.1594C139.025 26.3974 137.673 26.4974 136.777 26.4974C132.058 26.4974 127.483 22.8368 127.483 16.249C127.482 9.00169 132.564 6 137.038 6C137.922 6 139.032 6.06079 139.989 6.27781V8.0702C139.01 7.79631 137.827 7.69695 136.916 7.69695Z" fill="#F1F1F1"/>
<path d="M149 6.3373V8.03425H146.15V26.1588H144.588V8.03425H141.739V6.3373H149Z" fill="#F1F1F1"/>
<path d="M27.5948 33.1538V33.1407C27.5948 32.1536 28.2422 31.3411 29.1682 31.3411C30.2308 31.3411 30.7176 32.2379 30.7176 33.2178C30.7176 33.2949 30.7115 33.3858 30.7055 33.476H28.4907C28.5798 33.9212 28.865 34.1532 29.2687 34.1532C29.5713 34.1532 29.791 34.0499 30.0407 33.7983L30.5569 34.2951C30.2603 34.6951 29.8325 34.9403 29.2567 34.9403C28.3006 34.9403 27.5948 34.2114 27.5948 33.1538ZM29.8391 32.8635C29.7855 32.4249 29.5479 32.1281 29.1682 32.1281C28.7885 32.1281 28.5509 32.4184 28.4793 32.8635H29.8391Z" fill="#F1F1F1"/>
<path d="M31.6797 31.4058H32.5822V31.8961C32.7898 31.6058 33.063 31.3411 33.5202 31.3411C33.936 31.3411 34.2507 31.5411 34.4168 31.8895C34.696 31.5346 35.0281 31.3411 35.4619 31.3411C36.1328 31.3411 36.5365 31.7797 36.5365 32.6119V34.8631H35.634V32.9348C35.634 32.4707 35.4439 32.2314 35.1057 32.2314C34.7676 32.2314 34.5594 32.47 34.5594 32.9348V34.8631H33.6568V32.9348C33.6568 32.4707 33.4667 32.2314 33.1285 32.2314C32.7904 32.2314 32.5822 32.47 32.5822 32.9348V34.8631H31.6797V31.4058Z" fill="#F1F1F1"/>
<path d="M37.6111 31.4058H38.5137V31.9026C38.7333 31.5803 39.036 31.3417 39.5053 31.3417C40.2472 31.3417 40.9542 31.9739 40.9542 33.1283V33.1413C40.9542 34.2957 40.2598 34.9278 39.5053 34.9278C39.0245 34.9278 38.7273 34.6892 38.5137 34.4121V35.8959H37.6111V31.4058ZM40.0516 33.1407V33.1276C40.0516 32.5537 39.6954 32.1732 39.2736 32.1732C38.8518 32.1732 38.5017 32.5537 38.5017 33.1276V33.1407C38.5017 33.7146 38.8518 34.095 39.2736 34.095C39.6954 34.095 40.0516 33.7211 40.0516 33.1407Z" fill="#F1F1F1"/>
<path d="M41.7556 33.1538V33.1407C41.7556 32.1471 42.4921 31.3411 43.4837 31.3411C44.4753 31.3411 45.1997 32.1347 45.1997 33.1276V33.1407C45.1997 34.1343 44.4632 34.9403 43.4716 34.9403C42.48 34.9403 41.7556 34.1467 41.7556 33.1538ZM44.3086 33.1538V33.1407C44.3086 32.6308 43.9704 32.1863 43.4716 32.1863C42.9728 32.1863 42.6461 32.6184 42.6461 33.1283V33.1413C42.6461 33.6505 42.9843 34.0957 43.4831 34.0957C43.9819 34.0957 44.3086 33.6636 44.3086 33.1538Z" fill="#F1F1F1"/>
<path d="M46.0011 33.1407V33.1276C46.0011 31.9732 46.6955 31.3411 47.45 31.3411C47.9308 31.3411 48.228 31.5797 48.4416 31.8569V30.154H49.3441V34.8631H48.4416V34.3663C48.222 34.6886 47.9193 34.9272 47.45 34.9272C46.7081 34.9272 46.0011 34.2951 46.0011 33.1407ZM48.453 33.1407V33.1276C48.453 32.5537 48.1029 32.1732 47.6811 32.1732C47.2593 32.1732 46.9031 32.5471 46.9031 33.1276V33.1407C46.9031 33.7146 47.2593 34.095 47.6811 34.095C48.1029 34.095 48.453 33.7146 48.453 33.1407Z" fill="#F1F1F1"/>
<path d="M50.2882 33.1538V33.1407C50.2882 32.1536 50.9356 31.3411 51.8616 31.3411C52.9242 31.3411 53.411 32.2379 53.411 33.2178C53.411 33.2949 53.405 33.3858 53.3989 33.476H51.1841C51.2732 33.9212 51.5584 34.1532 51.9621 34.1532C52.2648 34.1532 52.4844 34.0499 52.7341 33.7983L53.2503 34.2951C52.9537 34.6951 52.5259 34.9403 51.9501 34.9403C50.994 34.9403 50.2882 34.2114 50.2882 33.1538ZM52.5325 32.8635C52.479 32.4249 52.2419 32.1281 51.8616 32.1281C51.4814 32.1281 51.2443 32.4184 51.1727 32.8635H52.5325Z" fill="#F1F1F1"/>
<path d="M54.3731 31.4058H55.2756V32.1026C55.4597 31.6255 55.7564 31.3156 56.2907 31.3418V32.3674H56.2431C55.6433 32.3674 55.2756 32.7609 55.2756 33.5865V34.8638H54.3731V31.4058Z" fill="#F1F1F1"/>
<path d="M56.9555 33.8695V33.8565C56.9555 33.1015 57.4838 32.7537 58.2378 32.7537C58.5585 32.7537 58.7901 32.8119 59.0157 32.8956V32.8374C59.0157 32.4308 58.7841 32.2053 58.3328 32.2053C57.9886 32.2053 57.745 32.2759 57.4543 32.3922L57.2287 31.6438C57.5789 31.4758 57.9231 31.3666 58.464 31.3666C58.9568 31.3666 59.313 31.5084 59.5386 31.7536C59.7763 32.0118 59.8828 32.3922 59.8828 32.8563V34.8625H59.0097V34.4886C58.7901 34.7526 58.4875 34.9272 58.0476 34.9272C57.4477 34.9272 56.9555 34.5533 56.9555 33.8695ZM59.0278 33.644V33.4701C58.8731 33.393 58.6716 33.3414 58.452 33.3414C58.0663 33.3414 57.8286 33.5094 57.8286 33.8185V33.8316C57.8286 34.0964 58.0308 34.2506 58.3214 34.2506C58.7432 34.2506 59.0278 33.999 59.0278 33.644Z" fill="#F1F1F1"/>
<path d="M63.1464 32.8753V32.8642C63.1464 32.4001 63.4953 32.0262 63.9231 32.0262C64.3509 32.0262 64.6999 32.4001 64.6999 32.8642V32.8753C64.6999 33.3394 64.3509 33.7133 63.9231 33.7133C63.4953 33.7133 63.1464 33.3394 63.1464 32.8753Z" fill="#F1F1F1"/>
<path d="M67.8041 33.1407C67.8041 32.1536 68.4984 31.3411 69.4725 31.3411C70.0724 31.3411 70.4461 31.5601 70.7433 31.9216L70.191 32.5667C69.9894 32.3347 69.7872 32.1863 69.4665 32.1863C69.0153 32.1863 68.6946 32.6184 68.6946 33.1283V33.1413C68.6946 33.6702 69.0093 34.0957 69.502 34.0957C69.8047 34.0957 70.0129 33.9539 70.2325 33.7283L70.7608 34.3088C70.4521 34.6762 70.0959 34.9409 69.4605 34.9409C68.5044 34.9409 67.8041 34.1408 67.8041 33.1544V33.1407Z" fill="#F1F1F1"/>
<path d="M71.4852 33.1538V33.1407C71.4852 32.1471 72.2217 31.3411 73.2133 31.3411C74.2049 31.3411 74.9293 32.1347 74.9293 33.1276V33.1407C74.9293 34.1343 74.1928 34.9403 73.2012 34.9403C72.2096 34.9403 71.4852 34.1467 71.4852 33.1538ZM74.0382 33.1538V33.1407C74.0382 32.6308 73.7 32.1863 73.2012 32.1863C72.7024 32.1863 72.3757 32.6184 72.3757 33.1283V33.1413C72.3757 33.6505 72.7139 34.0957 73.2127 34.0957C73.7115 34.0957 74.0382 33.6636 74.0382 33.1538Z" fill="#F1F1F1"/>
<path d="M75.8727 31.4058H76.7753V31.8961C76.9829 31.6058 77.25 31.3411 77.7073 31.3411C78.3902 31.3411 78.7879 31.8314 78.7879 32.6249V34.8631H77.8854V32.9348C77.8854 32.4707 77.6838 32.2314 77.3391 32.2314C76.9943 32.2314 76.7753 32.47 76.7753 32.9348V34.8631H75.8727V31.4058Z" fill="#F1F1F1"/>
<path d="M79.7085 33.1538V33.1407C79.7085 32.1536 80.356 31.3411 81.282 31.3411C82.3445 31.3411 82.8313 32.2379 82.8313 33.2178C82.8313 33.2949 82.8253 33.3858 82.8193 33.476H80.6045C80.6935 33.9212 80.9787 34.1532 81.3824 34.1532C81.6851 34.1532 81.9047 34.0499 82.1544 33.7983L82.6713 34.2951C82.3746 34.6951 81.9468 34.9403 81.371 34.9403C80.4149 34.9403 79.7085 34.2114 79.7085 33.1538ZM81.9529 32.8635C81.8993 32.4249 81.6622 32.1281 81.282 32.1281C80.9017 32.1281 80.6646 32.4184 80.593 32.8635H81.9529Z" fill="#F1F1F1"/>
<path d="M83.6394 33.1407C83.6394 32.1536 84.3343 31.3411 85.3079 31.3411C85.9078 31.3411 86.2814 31.5601 86.5787 31.9216L86.0263 32.5667C85.8241 32.3347 85.6226 32.1863 85.3019 32.1863C84.8506 32.1863 84.5299 32.6184 84.5299 33.1283V33.1413C84.5299 33.6702 84.8446 34.0957 85.3374 34.0957C85.64 34.0957 85.8482 33.9539 86.0678 33.7283L86.5961 34.3088C86.2874 34.6762 85.9312 34.9409 85.2958 34.9409C84.3398 34.9409 83.6394 34.1408 83.6394 33.1544V33.1407Z" fill="#F1F1F1"/>
<path d="M87.6232 33.8826V32.2445H87.2429V31.4058H87.6232V30.522H88.5257V31.4058H89.2736V32.2445H88.5257V33.7218C88.5257 33.9473 88.6148 34.0571 88.8169 34.0571C88.983 34.0571 89.1316 34.012 89.2622 33.9342V34.7213C89.0721 34.8442 88.8525 34.9213 88.5498 34.9213C87.9975 34.9213 87.6232 34.6827 87.6232 33.8826Z" fill="#F1F1F1"/>
<path d="M90.0396 33.8695V33.8565C90.0396 33.1015 90.5679 32.7537 91.3218 32.7537C91.6425 32.7537 91.8742 32.8119 92.0998 32.8956V32.8374C92.0998 32.4308 91.8681 32.2053 91.4169 32.2053C91.0727 32.2053 90.829 32.2759 90.5384 32.3922L90.3128 31.6438C90.6629 31.4758 91.0071 31.3666 91.548 31.3666C92.0408 31.3666 92.397 31.5084 92.6227 31.7536C92.8603 32.0118 92.9668 32.3922 92.9668 32.8563V34.8625H92.0938V34.4886C91.8741 34.7526 91.5715 34.9272 91.1317 34.9272C90.5318 34.9272 90.0396 34.5533 90.0396 33.8695ZM92.1118 33.644V33.4701C91.9572 33.393 91.7556 33.3414 91.536 33.3414C91.1503 33.3414 90.9126 33.5094 90.9126 33.8185V33.8316C90.9126 34.0964 91.1148 34.2506 91.4054 34.2506C91.8272 34.2506 92.1118 33.999 92.1118 33.644Z" fill="#F1F1F1"/>
<path d="M96.2304 32.8753V32.8642C96.2304 32.4001 96.5794 32.0262 97.0072 32.0262C97.435 32.0262 97.784 32.4001 97.784 32.8642V32.8753C97.784 33.3394 97.435 33.7133 97.0072 33.7133C96.5794 33.7133 96.2304 33.3394 96.2304 32.8753Z" fill="#F1F1F1"/>
<path d="M101.06 30.1547H102.01V31.0254H101.06V30.1547ZM101.084 31.4058H101.986V34.8631H101.084V31.4058Z" fill="#F1F1F1"/>
<path d="M103.126 31.4058H104.029V31.8961C104.237 31.6058 104.504 31.3411 104.961 31.3411C105.644 31.3411 106.042 31.8314 106.042 32.6249V34.8631H105.139V32.9348C105.139 32.4707 104.937 32.2314 104.593 32.2314C104.249 32.2314 104.029 32.47 104.029 32.9348V34.8631H103.126V31.4058Z" fill="#F1F1F1"/>
<path d="M106.867 34.4049L107.253 33.7597C107.597 34.0303 107.959 34.1728 108.256 34.1728C108.518 34.1728 108.637 34.0695 108.637 33.9146V33.9016C108.637 33.6885 108.328 33.6179 107.978 33.5015C107.533 33.3597 107.028 33.1341 107.028 32.4628V32.4497C107.028 31.7464 107.55 31.3529 108.191 31.3529C108.595 31.3529 109.034 31.5013 109.379 31.7529L109.035 32.4301C108.72 32.2301 108.406 32.1079 108.174 32.1079C107.954 32.1079 107.841 32.2111 107.841 32.3465V32.3595C107.841 32.553 108.144 32.6432 108.489 32.7727C108.934 32.9341 109.451 33.1662 109.451 33.7983V33.8113C109.451 34.5788 108.922 34.9272 108.234 34.9272C107.788 34.9272 107.289 34.7657 106.867 34.4049Z" fill="#F1F1F1"/>
<path d="M110.388 31.4058H111.29V31.9026C111.51 31.5803 111.812 31.3417 112.282 31.3417C113.024 31.3417 113.731 31.9739 113.731 33.1283V33.1413C113.731 34.2957 113.036 34.9278 112.282 34.9278C111.801 34.9278 111.504 34.6892 111.29 34.4121V35.8959H110.388V31.4058ZM112.828 33.1407V33.1276C112.828 32.5537 112.472 32.1732 112.05 32.1732C111.628 32.1732 111.278 32.5537 111.278 33.1276V33.1407C111.278 33.7146 111.628 34.095 112.05 34.095C112.472 34.095 112.828 33.7211 112.828 33.1407Z" fill="#F1F1F1"/>
<path d="M114.704 30.1547H115.654V31.0254H114.704V30.1547ZM114.728 31.4058H115.631V34.8631H114.728V31.4058Z" fill="#F1F1F1"/>
<path d="M116.77 31.4058H117.673V32.1026C117.857 31.6255 118.154 31.3156 118.688 31.3418V32.3674H118.64C118.041 32.3674 117.673 32.7609 117.673 33.5865V34.8638H116.77V31.4058Z" fill="#F1F1F1"/>
<path d="M119.353 33.8695V33.8565C119.353 33.1015 119.882 32.7537 120.636 32.7537C120.956 32.7537 121.188 32.8119 121.414 32.8956V32.8374C121.414 32.4308 121.182 32.2053 120.731 32.2053C120.387 32.2053 120.143 32.2759 119.852 32.3922L119.626 31.6438C119.976 31.4758 120.32 31.3666 120.861 31.3666C121.353 31.3666 121.71 31.5084 121.935 31.7536C122.173 32.0118 122.279 32.3922 122.279 32.8563V34.8625H121.406V34.4886C121.187 34.7526 120.884 34.9272 120.444 34.9272C119.844 34.9272 119.352 34.5533 119.352 33.8695H119.353ZM121.426 33.644V33.4701C121.271 33.393 121.069 33.3414 120.85 33.3414C120.464 33.3414 120.226 33.5094 120.226 33.8185V33.8316C120.226 34.0964 120.429 34.2506 120.719 34.2506C121.141 34.2506 121.426 33.999 121.426 33.644Z" fill="#F1F1F1"/>
</svg>
